<svg id="svg" version="1.1" width="500" height="500" xmlns="http://www.w3.org/2000/svg" xmlns:xlink="http://www.w3.org/1999/xlink" style="display: block;"><g id="svgg"><path id="path0" d="M57.635 34.181 C 56.994 34.435,55.194 35.882,53.635 37.397 L 50.800 40.150 50.572 189.875 C 50.320 354.781,50.055 343.253,54.193 347.640 L 57.174 350.800 200.387 350.800 L 343.600 350.800 347.200 347.200 L 350.800 343.600 350.800 191.815 L 350.800 40.031 348.968 38.748 C 347.960 38.042,346.410 36.685,345.522 35.732 L 343.909 34.000 201.354 33.860 C 122.949 33.783,58.276 33.927,57.635 34.181 M329.123 53.747 C 330.705 55.148,332.000 56.768,332.000 57.347 C 332.000 57.926,332.360 58.400,332.800 58.400 C 334.075 58.400,333.879 125.420,332.600 126.768 C 332.050 127.347,331.021 128.492,330.314 129.311 C 326.287 133.976,337.673 133.600,200.391 133.600 C 117.464 133.600,75.200 133.330,75.200 132.800 C 75.200 132.360,74.726 132.000,74.147 132.000 C 73.568 132.000,71.937 130.693,70.523 129.096 L 67.952 126.191 68.176 91.633 L 68.400 57.076 70.808 54.669 C 72.132 53.345,73.752 52.051,74.408 51.794 C 75.063 51.537,131.995 51.298,200.923 51.263 L 326.246 51.200 329.123 53.747 M163.262 154.338 L 166.000 157.077 166.211 241.649 L 166.421 326.222 163.864 329.111 C 162.457 330.700,160.832 332.000,160.253 332.000 C 159.674 332.000,159.200 332.360,159.200 332.800 C 159.200 333.323,144.667 333.600,117.200 333.600 C 89.733 333.600,75.200 333.323,75.200 332.800 C 75.200 332.360,74.726 332.000,74.147 332.000 C 73.568 332.000,71.943 330.700,70.536 329.111 L 67.979 326.222 68.189 241.649 L 68.400 157.077 70.808 154.669 C 74.328 151.149,72.209 151.293,118.062 151.453 L 160.524 151.600 163.262 154.338 M329.123 153.747 C 330.705 155.148,332.000 156.768,332.000 157.347 C 332.000 157.926,332.360 158.400,332.800 158.400 C 334.067 158.400,333.873 208.531,332.600 210.098 C 332.050 210.774,330.393 212.565,328.918 214.077 L 326.235 216.826 258.486 216.613 L 190.737 216.400 188.368 213.844 C 187.066 212.438,185.550 210.743,185.000 210.078 C 183.727 208.537,183.532 158.400,184.800 158.400 C 185.240 158.400,185.600 157.925,185.600 157.344 C 185.600 156.242,189.114 152.795,191.194 151.856 C 191.857 151.557,222.515 151.287,259.323 151.256 L 326.246 151.200 329.123 153.747 M246.200 237.178 C 247.630 238.486,248.800 240.016,248.800 240.578 C 248.800 241.140,249.160 241.600,249.600 241.600 C 251.223 241.600,250.637 325.293,249.000 327.289 C 246.534 330.297,244.527 332.000,243.449 332.000 C 242.872 332.000,242.400 332.360,242.400 332.800 C 242.400 333.316,233.467 333.600,217.200 333.600 C 200.933 333.600,192.000 333.316,192.000 332.800 C 192.000 332.360,191.528 332.000,190.951 332.000 C 189.873 332.000,187.866 330.297,185.400 327.289 C 183.763 325.293,183.177 241.600,184.800 241.600 C 185.240 241.600,185.600 241.140,185.600 240.578 C 185.600 239.552,189.561 235.688,191.410 234.910 C 191.955 234.681,203.920 234.563,218.000 234.647 L 243.600 234.800 246.200 237.178 M329.055 237.020 C 330.675 238.461,332.000 240.081,332.000 240.620 C 332.000 241.159,332.360 241.600,332.800 241.600 C 334.078 241.600,333.882 325.418,332.600 326.768 C 332.050 327.347,331.021 328.492,330.314 329.311 C 326.477 333.756,327.563 333.600,300.391 333.600 C 284.130 333.600,275.200 333.316,275.200 332.800 C 275.200 332.360,274.726 332.000,274.147 332.000 C 273.568 332.000,271.939 330.695,270.527 329.100 L 267.960 326.201 268.180 283.208 L 268.400 240.215 271.021 237.767 C 274.681 234.349,273.020 234.533,300.855 234.463 L 326.109 234.400 329.055 237.020 " stroke="none" fill="#4c4c4c" fill-rule="evenodd"></path><path id="path1" d="M29.600 8.730 C 27.180 8.989,25.280 9.466,25.378 9.792 C 25.476 10.117,25.383 10.837,25.171 11.392 C 24.016 14.418,25.232 373.679,26.400 374.417 C 28.319 375.630,373.025 375.455,374.240 374.240 C 375.537 372.943,375.649 10.400,374.353 10.400 C 373.887 10.400,373.696 10.092,373.929 9.715 C 374.938 8.082,44.529 7.137,29.600 8.730 M345.522 35.732 C 346.410 36.685,347.960 38.042,348.968 38.748 L 350.800 40.031 350.800 191.815 L 350.800 343.600 347.200 347.200 L 343.600 350.800 200.387 350.800 L 57.174 350.800 54.193 347.640 C 50.055 343.253,50.320 354.781,50.572 189.875 L 50.800 40.150 53.635 37.397 C 55.194 35.882,56.994 34.435,57.635 34.181 C 58.276 33.927,122.949 33.783,201.354 33.860 L 343.909 34.000 345.522 35.732 M74.408 51.794 C 73.752 52.051,72.132 53.345,70.808 54.669 L 68.400 57.076 68.176 91.633 L 67.952 126.191 70.523 129.096 C 71.937 130.693,73.568 132.000,74.147 132.000 C 74.726 132.000,75.200 132.360,75.200 132.800 C 75.200 133.330,117.464 133.600,200.391 133.600 C 337.673 133.600,326.287 133.976,330.314 129.311 C 331.021 128.492,332.050 127.347,332.600 126.768 C 333.879 125.420,334.075 58.400,332.800 58.400 C 332.360 58.400,332.000 57.926,332.000 57.347 C 332.000 56.768,330.705 55.148,329.123 53.747 L 326.246 51.200 200.923 51.263 C 131.995 51.298,75.063 51.537,74.408 51.794 M74.408 151.783 C 73.752 152.046,72.132 153.345,70.808 154.669 L 68.400 157.077 68.189 241.649 L 67.979 326.222 70.536 329.111 C 71.943 330.700,73.568 332.000,74.147 332.000 C 74.726 332.000,75.200 332.360,75.200 332.800 C 75.200 333.323,89.733 333.600,117.200 333.600 C 144.667 333.600,159.200 333.323,159.200 332.800 C 159.200 332.360,159.674 332.000,160.253 332.000 C 160.832 332.000,162.457 330.700,163.864 329.111 L 166.421 326.222 166.211 241.649 L 166.000 157.077 163.262 154.338 L 160.524 151.600 118.062 151.453 C 94.708 151.372,75.063 151.520,74.408 151.783 M191.194 151.856 C 189.114 152.795,185.600 156.242,185.600 157.344 C 185.600 157.925,185.240 158.400,184.800 158.400 C 183.532 158.400,183.727 208.537,185.000 210.078 C 185.550 210.743,187.066 212.438,188.368 213.844 L 190.737 216.400 258.486 216.613 L 326.235 216.826 328.918 214.077 C 330.393 212.565,332.050 210.774,332.600 210.098 C 333.873 208.531,334.067 158.400,332.800 158.400 C 332.360 158.400,332.000 157.926,332.000 157.347 C 332.000 156.768,330.705 155.148,329.123 153.747 L 326.246 151.200 259.323 151.256 C 222.515 151.287,191.857 151.557,191.194 151.856 M191.410 234.910 C 189.561 235.688,185.600 239.552,185.600 240.578 C 185.600 241.140,185.240 241.600,184.800 241.600 C 183.177 241.600,183.763 325.293,185.400 327.289 C 187.866 330.297,189.873 332.000,190.951 332.000 C 191.528 332.000,192.000 332.360,192.000 332.800 C 192.000 333.316,200.933 333.600,217.200 333.600 C 233.467 333.600,242.400 333.316,242.400 332.800 C 242.400 332.360,242.872 332.000,243.449 332.000 C 244.527 332.000,246.534 330.297,249.000 327.289 C 250.637 325.293,251.223 241.600,249.600 241.600 C 249.160 241.600,248.800 241.140,248.800 240.578 C 248.800 240.016,247.630 238.486,246.200 237.178 L 243.600 234.800 218.000 234.647 C 203.920 234.563,191.955 234.681,191.410 234.910 M274.621 234.923 C 274.082 235.141,272.462 236.421,271.021 237.767 L 268.400 240.215 268.180 283.208 L 267.960 326.201 270.527 329.100 C 271.939 330.695,273.568 332.000,274.147 332.000 C 274.726 332.000,275.200 332.360,275.200 332.800 C 275.200 333.316,284.130 333.600,300.391 333.600 C 327.563 333.600,326.477 333.756,330.314 329.311 C 331.021 328.492,332.050 327.347,332.600 326.768 C 333.882 325.418,334.078 241.600,332.800 241.600 C 332.360 241.600,332.000 241.159,332.000 240.620 C 332.000 240.081,330.675 238.461,329.055 237.020 L 326.109 234.400 300.855 234.463 C 286.965 234.498,275.159 234.705,274.621 234.923 " stroke="none" fill="#f0eff1" fill-rule="evenodd"></path></g></svg>